<?xml version="1.0" encoding="utf-8"?>
<!-- Generator: Adobe Illustrator 25.2.3, SVG Export Plug-In . SVG Version: 6.00 Build 0)  -->
<svg version="1.1" id="레이어_1" xmlns="http://www.w3.org/2000/svg" xmlns:xlink="http://www.w3.org/1999/xlink" x="0px"
	 y="0px" viewBox="0 0 191.2 202.4" style="enable-background:new 0 0 191.2 202.4;" xml:space="preserve">
<style type="text/css">
	.st0{fill:#13A987;stroke:#13A987;stroke-width:3;stroke-miterlimit:10;}
</style>
<g id="레이어_2_1_">
	<g id="레이어_1-2">
		<path class="st0" d="M25.1,2.7v196.9c-6.5-4.1-12.5-8.9-18.1-14.2c-1.2-1.1-2.3-2.2-3.4-3.4H7V20.3H3.5C4.7,19.1,5.8,18,7,16.9
			C12.6,11.6,18.6,6.9,25.1,2.7z"/>
		<path class="st0" d="M80.9,1.6V2C68.3,3.1,56,6.7,44.7,12.4c-4.2,2.1-8.2,4.5-12,7.2c-2.1,1.5-4.1,3-6.1,4.7V2l0.6-0.4H80.9z"/>
		<path class="st0" d="M80.9,200.5v0.4H27.2l-0.6-0.4v-22.4c2,1.6,4,3.2,6.1,4.7C46.9,192.8,63.6,198.9,80.9,200.5L80.9,200.5z"/>
		<rect x="62.8" y="2.8" class="st0" width="18.1" height="196.9"/>
		<path class="st0" d="M189.7,101.2c0,3.1-0.1,6.1-0.4,9.1c-1.1,12.6-4.7,24.9-10.5,36.2c-2.1,4.2-4.5,8.2-7.2,12V43.9
			c10,14.2,16.2,30.9,17.7,48.3C189.5,95.2,189.7,98.2,189.7,101.2z"/>
		<path class="st0" d="M153.4,24.4v153.8c-2,1.6-4,3.2-6.1,4.7c-9.2,6.5-19.3,11.3-30.1,14.4c-5.9,1.7-12,2.8-18.1,3.3V2
			c6.1,0.5,12.2,1.7,18.1,3.3v177.4h18.1V12.4c4.2,2.1,8.2,4.5,12,7.2C149.4,21.2,151.4,22.7,153.4,24.4z"/>
	</g>
</g>
</svg>
