<svg xmlns="http://www.w3.org/2000/svg" viewBox="0 0 191.16 202.4"><defs><style>.cls-1{fill:#fff;stroke:#fff;stroke-miterlimit:10;stroke-width:3px;}</style></defs><g id="레이어_2" data-name="레이어 2"><g id="레이어_1-2" data-name="레이어 1"><path class="cls-1" d="M25.09,2.73V199.66A117.27,117.27,0,0,1,7,185.5c-1.17-1.11-2.32-2.24-3.44-3.41H7V20.31H3.53Q5.21,18.57,7,16.89A118.5,118.5,0,0,1,25.09,2.73Z"/><path class="cls-1" d="M80.94,1.57V2A98.77,98.77,0,0,0,44.7,12.44a97.94,97.94,0,0,0-12,7.25q-3.15,2.2-6.12,4.67V2l.64-.4Z"/><path class="cls-1" d="M80.94,200.49v.41H27.21l-.64-.4V178.11q3,2.46,6.11,4.67a99,99,0,0,0,48.26,17.71Z"/><rect class="cls-1" x="62.82" y="2.77" width="18.12" height="196.85"/><path class="cls-1" d="M189.66,101.24c0,3.05-.14,6.08-.41,9.06a98.77,98.77,0,0,1-10.46,36.24,97.94,97.94,0,0,1-7.25,12V43.92a99,99,0,0,1,17.71,48.26Q189.66,96.65,189.66,101.24Z"/><path class="cls-1" d="M153.42,24.36V178.11q-3,2.46-6.11,4.67a99.4,99.4,0,0,1-30.13,14.37,99.4,99.4,0,0,1-18.12,3.34V2a99.4,99.4,0,0,1,18.12,3.34V182.78H135.3V12.45a97.75,97.75,0,0,1,12,7.24Q150.45,21.9,153.42,24.36Z"/></g></g></svg>